<svg width="142" height="44" viewBox="0 0 142 44" fill="none" xmlns="http://www.w3.org/2000/svg">
<path d="M0.0332664 10.889L8.73875 2.00004L8.86481 35.5548L0.154076 43.0456L0.0332664 10.889Z" fill="url(#paint0_linear_4_20)"/>
<g filter="url(#filter0_d_4_20)">
<path d="M13.7585 9.21559L24.3698 9.17239L13.7977 20.0716L25.0727 30.9512L13.8372 30.9969L4.43478 20.1097L13.7585 9.21559Z" fill="url(#paint1_linear_4_20)"/>
</g>
<path d="M25.8926 20.8686L25.894 20.3852C25.901 18.1001 26.6293 16.276 28.0787 14.913C29.538 13.5402 31.4395 12.8572 33.7833 12.8639C36.127 12.8706 38.0194 13.5646 39.4605 14.9457C40.9017 16.317 41.6187 18.1452 41.6118 20.4304L41.6103 20.9138C41.6033 23.2087 40.875 25.0377 39.4255 26.4007C37.9761 27.7637 36.0794 28.4419 33.7357 28.4351C31.3822 28.4284 29.4849 27.7393 28.0437 26.368C26.6026 24.9967 25.8856 23.1635 25.8926 20.8686ZM30.5821 20.1936L30.5794 21.0872C30.5756 22.3469 30.846 23.3243 31.3908 24.0192C31.9355 24.7141 32.7206 25.0631 33.746 25.066C34.7714 25.069 35.5586 24.7245 36.1076 24.0327C36.6565 23.341 36.933 22.3603 36.9369 21.0908L36.9395 20.2119C36.9434 18.9521 36.668 17.9796 36.1135 17.2945C35.5589 16.6093 34.7787 16.2652 33.7729 16.2623C32.7573 16.2594 31.9701 16.599 31.4114 17.281C30.8624 17.963 30.586 18.9339 30.5821 20.1936ZM44.0222 22.576L44.0504 13.3329L48.65 13.3461L48.6224 22.3988C48.6195 23.3558 48.8127 24.0204 49.2022 24.3926C49.5917 24.7648 50.1234 24.9519 50.7972 24.9538C51.4027 24.9556 51.9403 24.7765 52.4102 24.4165C52.8898 24.0565 53.2525 23.6035 53.4983 23.0573L53.5279 13.3601L58.1275 13.3733L58.0826 28.0949L53.6588 28.0822L53.591 26.2949L53.5324 26.2947C53.1105 26.938 52.5083 27.449 51.7259 27.8276C50.9533 28.2063 50.0591 28.3941 49.0435 28.3912C47.5592 28.3869 46.3496 27.9391 45.4148 27.0478C44.48 26.1466 44.0158 24.656 44.0222 22.576ZM61.3743 34.2714L61.4381 13.3828L65.8033 13.3953L65.8566 15.1093L65.9299 15.1096C66.2637 14.5246 66.8169 14.0428 67.5896 13.6641C68.372 13.2757 69.2515 13.083 70.2281 13.0858C72.1128 13.0912 73.6293 13.7596 74.7776 15.091C75.9357 16.4225 76.5112 18.2308 76.5042 20.5159L76.5028 20.9847C76.4959 23.2503 75.9142 25.0601 74.7577 26.4143C73.6012 27.7586 72.0953 28.4281 70.2398 28.4228C69.273 28.42 68.419 28.2613 67.6778 27.9467C66.9464 27.6223 66.3813 27.1812 65.9826 26.6234L65.9592 34.2845L61.3743 34.2714ZM65.9933 23.1225C66.1968 23.6504 66.5518 24.1104 67.0584 24.5025C67.565 24.8946 68.165 25.0916 68.8584 25.0936C69.8642 25.0965 70.6075 24.7519 71.0881 24.06C71.5785 23.3582 71.8256 22.4019 71.8293 21.191L71.832 20.3121C71.8357 19.0914 71.5945 18.1434 71.1082 17.4682C70.6221 16.7832 69.8809 16.4393 68.8848 16.4364C68.1622 16.4343 67.5561 16.6279 67.0666 17.0171C66.5772 17.3966 66.2243 17.8399 66.0079 18.3471L65.9933 23.1225ZM79.0109 34.322L79.0747 13.4334L83.4399 13.446L83.4933 15.16L83.5665 15.1602C83.9003 14.5752 84.4536 14.0934 85.2262 13.7148C86.0087 13.3264 86.8882 13.1336 87.8647 13.1364C89.7495 13.1418 91.266 13.8102 92.4143 15.1417C93.5723 16.4731 94.1479 18.2814 94.1409 20.5666L94.1394 21.0353C94.1325 23.3009 93.5508 25.1108 92.3943 26.4649C91.2379 27.8092 89.7319 28.4787 87.8765 28.4734C86.9097 28.4706 86.0557 28.3119 85.3144 27.9973C84.583 27.6729 84.0179 27.2319 83.6192 26.6741L83.5958 34.3352L79.0109 34.322ZM83.6299 23.1731C83.8334 23.701 84.1884 24.1611 84.6951 24.5531C85.2017 24.9452 85.8017 25.1422 86.495 25.1442C87.5009 25.1471 88.2441 24.8026 88.7248 24.1106C89.2152 23.4089 89.4622 22.4526 89.4659 21.2416L89.4686 20.3627C89.4724 19.142 89.2311 18.1941 88.7449 17.5188C88.2587 16.8338 87.5176 16.4899 86.5215 16.4871C85.7988 16.485 85.1928 16.6786 84.7033 17.0678C84.2138 17.4472 83.8609 17.8906 83.6445 18.3977L83.6299 23.1731ZM95.9119 21.0551L95.9133 20.5863C95.9202 18.3109 96.6289 16.4917 98.0393 15.1285C99.4596 13.7556 101.298 13.0724 103.553 13.0789C105.809 13.0854 107.56 13.7398 108.806 15.0423C110.062 16.3447 110.686 18.1336 110.68 20.409L110.675 21.8885L98.7659 21.8543L98.7739 19.2322L106.186 19.2535L106.187 19.0045C106.189 18.2525 105.961 17.6171 105.504 17.0982C105.056 16.5793 104.398 16.3187 103.529 16.3162C102.543 16.3133 101.79 16.6774 101.27 17.4083C100.76 18.1295 100.503 19.076 100.499 20.2479L100.496 21.2294C100.492 22.4989 100.763 23.5006 101.307 24.2346C101.862 24.9589 102.671 25.3225 103.736 25.3256C104.497 25.3278 105.147 25.1539 105.686 24.8038C106.224 24.4538 106.655 24.0303 106.979 23.5331L110.46 25.1984C109.978 26.2322 109.17 27.0648 108.035 27.6963C106.91 28.3279 105.498 28.6412 103.799 28.6363C101.318 28.6292 99.3821 27.94 97.9898 26.5689C96.5975 25.1879 95.9048 23.35 95.9119 21.0551ZM113.043 28.2527L113.088 13.5311L117.571 13.544L117.624 15.3019L117.682 15.3021C118.016 14.7171 118.467 14.2204 119.035 13.8119C119.612 13.4034 120.262 13.2001 120.985 13.2022C121.219 13.2029 121.449 13.228 121.673 13.2774C121.907 13.3172 122.068 13.3567 122.156 13.396L122.145 17.1167C121.969 17.0674 121.769 17.0277 121.544 16.9978C121.33 16.9679 121.091 16.9525 120.827 16.9518C120.173 16.9499 119.562 17.1483 118.994 17.5471C118.436 17.9459 118.01 18.4622 117.715 19.0962L117.687 28.266L113.043 28.2527Z" fill="black"/>
<defs>
<filter id="filter0_d_4_20" x="0.434753" y="9.17236" width="28.638" height="29.8245" filterUnits="userSpaceOnUse" color-interpolation-filters="sRGB">
<feFlood flood-opacity="0" result="BackgroundImageFix"/>
<feColorMatrix in="SourceAlpha" type="matrix" values="0 0 0 0 0 0 0 0 0 0 0 0 0 0 0 0 0 0 127 0" result="hardAlpha"/>
<feOffset dy="4"/>
<feGaussianBlur stdDeviation="2"/>
<feComposite in2="hardAlpha" operator="out"/>
<feColorMatrix type="matrix" values="0 0 0 0 0 0 0 0 0 0 0 0 0 0 0 0 0 0 0.25 0"/>
<feBlend mode="normal" in2="BackgroundImageFix" result="effect1_dropShadow_4_20"/>
<feBlend mode="normal" in="SourceGraphic" in2="effect1_dropShadow_4_20" result="shape"/>
</filter>
<linearGradient id="paint0_linear_4_20" x1="2.7775" y1="0.268037" x2="2.93806" y2="41.2793" gradientUnits="userSpaceOnUse">
<stop stop-color="#C9C4FF"/>
<stop offset="1" stop-color="#5B57FF"/>
</linearGradient>
<linearGradient id="paint1_linear_4_20" x1="-1.0352" y1="14.4367" x2="24.9885" y2="14.1609" gradientUnits="userSpaceOnUse">
<stop stop-color="#57CDFF"/>
<stop offset="1" stop-color="#5B57FF"/>
</linearGradient>
</defs>
</svg>
